<svg width="32" height="32" viewBox="0 0 24 24" fill="none" xmlns="http://www.w3.org/2000/svg">
  <circle cx="12" cy="8" r="3" fill="#6b5ce7"/>
  <path d="M12 11C10.34 11 9 11.66 9 10.5V8.5C9 7.67 10.34 7 12 7.67C13.66 7 15 7.67 15 8.5V10.5C15 9.66 13.66 11 12 11Z" fill="#ffffff"/>
  <circle cx="6" cy="6" r="1" fill="#6b5ce7" opacity="0.4"/>
  <circle cx="18" cy="6" r="1" fill="#6b5ce7" opacity="0.4"/>
  <circle cx="6" cy="18" r="1" fill="#6b5ce7" opacity="0.4"/>
  <circle cx="18" cy="18" r="1" fill="#6b5ce7" opacity="0.4"/>
  <line x1="6" y1="6" x2="12" y2="8" stroke="#6b5ce7" strokeWidth="0.8" opacity="0.6"/>
  <line x1="12" y1="8" x2="18" y2="6" stroke="#6b5ce7" strokeWidth="0.8" opacity="0.6"/>
  <line x1="6" y1="18" x2="12" y2="10" stroke="#6b5ce7" strokeWidth="0.8" opacity="0.6"/>
  <line x1="12" y1="10" x2="18" y2="18" stroke="#6b5ce7" strokeWidth="0.8" opacity="0.6"/>
  <line x1="6" y1="6" x2="6" y2="18" stroke="#6b5ce7" strokeWidth="0.8" opacity="0.6"/>
  <line x1="18" y1="6" x2="18" y2="18" stroke="#6b5ce7" strokeWidth="0.8" opacity="0.6"/>
  <line x1="18" y1="18" x2="6" y2="6" stroke="#6b5ce7" strokeWidth="0.8" opacity="0.6"/>
  <line x1="6" y1="18" x2="18" y2="18" stroke="#6b5ce7" strokeWidth="0.8" opacity="0.6"/>
  <line x1="6" y1="6" x2="18" y2="6" stroke="#6b5ce7" strokeWidth="0.8" opacity="0.6"/>
</svg>
